<?xml version="1.0" encoding="UTF-8"?>
<svg id="Layer_2" data-name="Layer 2" xmlns="http://www.w3.org/2000/svg" viewBox="0 0 379.55 134.36">
  <defs>
    <style>
      .cls-1 {
        fill: #ffd100;
      }

      .cls-2 {
        fill: #9d9d9c;
      }
    </style>
  </defs>
  <g id="Layer_1-2" data-name="Layer 1">
    <polygon class="cls-1" points="353.66 134.36 0 134.36 4.06 115.24 357.74 115.23 353.66 134.36"/>
    <path d="M268.87,82.36c-3.16-3.4-1.27-10.17.35-17.81l5.52-25.95h22.69l4.11-19.32h-22.71L282.86,0h-21.39l-14.02,66.32c-2.11,9.91-2.9,17.66,1.39,26.01,4,7.76,17.66,15.17,34.95,10.49l3.82-17.93c-11.72,1.45-16.43-.07-18.74-2.53Z"/>
    <polygon points="87.71 0 77.5 47.9 39.96 47.9 50.14 0 28.55 0 6.72 102.82 28.29 102.82 35.83 67.19 73.39 67.19 65.83 102.82 87.23 102.82 109.08 0 87.71 0"/>
    <path d="M210.97,26.54c-7.49,6.25-11.74,14.44-14.5,27.36l-10.39,48.91h21.41l8.63-40.56c2.04-9.49,3.6-15.42,7.16-19.07,4.9-5.01,12.01-5.29,20.54-4.58l4.12-19.32c-15.05-3.82-28.19-.07-36.97,7.26Z"/>
    <polygon points="378.08 19.28 311.25 19.28 307.16 38.6 345.93 38.6 297.44 84.24 293.5 102.82 360.32 102.82 364.44 83.51 325.45 83.51 374.18 37.66 378.08 19.28"/>
    <path d="M152.54,17.75c-7.23,0-17.12,2.24-26.84,9.87-21.91,17.19-32.79,76.72,14.26,76.72,12.2,0,25.77-3.85,35.18-10.96l-8.51-14.38c-7.12,5.48-42.99,17.39-39.21-11.68h56.07c.02-.06,7.15-23.3-3.13-37.36-8.75-12-24.88-12.21-27.82-12.21ZM166.46,49.62h-34.32c1.21-4.62,8.5-15.99,22.03-14.75,14.56,1.35,12.29,14.75,12.29,14.75Z"/>
    <g id="Registered_Trademark" data-name="Registered Trademark">
      <path class="cls-2" d="M374.79,92.09h-.06c-3.33.02-6.52,2.71-7.22,5.97-.09.42-.13.84-.13,1.25h0c.01,2.65,1.91,4.66,4.8,4.67.01,0,.02,0,.02,0,3.33-.02,6.51-2.73,7.22-5.98.09-.42.13-.84.13-1.23.02-2.65-1.9-4.66-4.76-4.67ZM378.61,97.84c-.59,2.84-3.54,5.34-6.41,5.32h-.01c-2.51-.05-3.94-1.6-3.99-3.85,0-.35.04-.72.12-1.09.57-2.83,3.5-5.31,6.37-5.32,2.56.05,3.99,1.59,4.04,3.86.01.33-.04.7-.12,1.08Z"/>
      <path class="cls-2" d="M374.31,95.19h-2.54l-1.21,5.69h1.26l.39-1.84h1l.82,1.84h1.48l-.97-2.04c.79-.26,1.41-.85,1.61-1.78.24-1.18-.48-1.87-1.84-1.87ZM374.85,97.14c-.11.49-.53.83-1.16.83h-1.25l.35-1.67h1.22c.64,0,.96.28.84.84Z"/>
    </g>
  </g>
</svg>